HIERARCHY
ROOT Hips
{
	OFFSET 0.000000 0.000000 0.000000
	CHANNELS 6 Xposition Yposition Zposition Yrotation Xrotation Zrotation
	JOINT Chest
	{
		OFFSET 0.000000 -0.009281 11.569106
		CHANNELS 3 Yrotation Xrotation Zrotation
		JOINT Chest2
		{
			OFFSET -0.000000 0.016865 9.269641
			CHANNELS 3 Yrotation Xrotation Zrotation
			JOINT Chest3
			{
				OFFSET -0.000000 0.000001 8.374491
				CHANNELS 3 Yrotation Xrotation Zrotation
				JOINT Chest4
				{
					OFFSET -0.000000 0.000001 8.374493
					CHANNELS 3 Yrotation Xrotation Zrotation
					JOINT Neck
					{
						OFFSET -0.000000 0.000002 12.152554
						CHANNELS 3 Yrotation Xrotation Zrotation
						JOINT Head
						{
							OFFSET -0.000000 0.040101 7.802319
							CHANNELS 3 Yrotation Xrotation Zrotation
							End Site
							{
								OFFSET -0.000000 0.020947 14.853096
							}
						}
					}
					JOINT RightCollar
					{
						OFFSET 2.894404 0.000001 6.791374
						CHANNELS 3 Yrotation Xrotation Zrotation
						JOINT RightShoulder
						{
							OFFSET 13.574684 0.000001 0.000000
							CHANNELS 3 Yrotation Xrotation Zrotation
							JOINT RightElbow
							{
								OFFSET 23.923903 0.000002 0.000000
								CHANNELS 3 Yrotation Xrotation Zrotation
								JOINT RightWrist
								{
									OFFSET 19.846718 0.012767 0.000000
									CHANNELS 3 Yrotation Xrotation Zrotation
									End Site
									{
										OFFSET 14.973145 0.000001 0.000000
									}
								}
							}
						}
					}
					JOINT LeftCollar
					{
						OFFSET -2.894404 0.000001 6.791374
						CHANNELS 3 Yrotation Xrotation Zrotation
						JOINT LeftShoulder
						{
							OFFSET -13.574684 -0.000001 0.000000
							CHANNELS 3 Yrotation Xrotation Zrotation
							JOINT LeftElbow
							{
								OFFSET -23.923903 -0.000002 0.000000
								CHANNELS 3 Yrotation Xrotation Zrotation
								JOINT LeftWrist
								{
									OFFSET -19.846718 0.012763 0.000000
									CHANNELS 3 Yrotation Xrotation Zrotation
									End Site
									{
										OFFSET -14.973145 -0.000001 0.000000
									}
								}
							}
						}
					}
				}
			}
		}
	}
	JOINT RightHip
	{
		OFFSET 9.469263 0.004643 0.045487
		CHANNELS 3 Yrotation Xrotation Zrotation
		JOINT RightKnee
		{
			OFFSET 0.000000 0.002661 -40.478676
			CHANNELS 3 Yrotation Xrotation Zrotation
			JOINT RightAnkle
			{
				OFFSET 0.000000 0.049106 -35.224068
				CHANNELS 3 Yrotation Xrotation Zrotation
				JOINT RightToe
				{
					OFFSET -0.000001 12.539529 -6.151390
					CHANNELS 3 Yrotation Xrotation Zrotation
					End Site
					{
						OFFSET -0.000001 5.044994 -1.291870
					}
				}
			}
		}
	}
	JOINT LeftHip
	{
		OFFSET -9.469263 0.004641 0.045487
		CHANNELS 3 Yrotation Xrotation Zrotation
		JOINT LeftKnee
		{
			OFFSET 0.000000 0.002661 -40.478676
			CHANNELS 3 Yrotation Xrotation Zrotation
			JOINT LeftAnkle
			{
				OFFSET 0.000000 0.049106 -35.224068
				CHANNELS 3 Yrotation Xrotation Zrotation
				JOINT LeftToe
				{
					OFFSET -0.000001 12.539529 -6.151390
					CHANNELS 3 Yrotation Xrotation Zrotation
					End Site
					{
						OFFSET -0.000001 5.044994 -1.291870
					}
				}
			}
		}
	}
}
MOTION
Frames: 13
Frame Time: 0.016667
67.078033 38.635590 84.262688 -15.526067 6.996495 -15.581041 3.113653 -2.564903 -2.245547 0.929232 -1.087660 -0.992910 0.929231 -1.087659 -0.992911 0.695139 -0.817259 -0.743008 11.804204 -15.929678 -19.254689 14.993329 7.032277 -31.502601 10.503249 1.820899 -0.949567 62.820883 0.210756 -17.185159 -7.755590 -28.449828 -13.000609 -2.750141 -0.301480 5.462048 -9.237153 -2.796295 -2.670445 -80.677061 9.562505 -12.605112 -13.355656 7.793633 -28.639733 7.050407 8.724842 -26.083003 9.882739 6.541376 6.943479 1.961554 -10.663763 -0.931149 10.914841 -2.520985 2.672112 -2.502398 0.606432 0.136054 4.686186 -12.520925 -8.573247 0.747135 -36.220435 11.333749 22.079387 -13.618391 -7.354104 -18.130088 52.035356 -7.643124 
68.322014 39.882397 83.281563 -15.037643 7.143144 -12.830305 1.902485 -2.498338 -3.839999 1.088408 -1.086768 -0.907249 1.088409 -1.086768 -0.907247 0.814671 -0.816696 -0.678483 11.994165 -15.976381 -19.106061 15.400965 6.982694 -31.154190 10.347749 1.664574 -1.576580 61.455911 -1.026227 -16.246245 -8.066262 -27.720953 -12.870569 -5.306572 -0.173811 6.203353 -8.745289 -3.566456 -2.831196 -81.779699 9.581782 -12.282165 -13.166057 8.557103 -28.687925 8.469746 9.730364 -26.374878 9.878701 5.780028 3.397042 2.354499 -10.704648 -1.793469 8.802852 -3.618849 4.017680 -1.609344 2.622117 0.072770 4.560703 -9.092591 -10.515044 0.529727 -41.639073 11.756800 23.236278 -18.958064 -7.289134 -23.089618 59.387552 -11.255517 
69.820557 40.870708 82.647469 -15.679126 6.746383 -10.897773 1.969039 -2.347369 -4.594098 1.273885 -1.018847 -0.873339 1.273884 -1.018845 -0.873338 0.953935 -0.765962 -0.652866 12.149973 -16.008898 -18.957067 15.743811 6.952472 -30.818558 10.322073 1.348151 -1.922395 59.940770 -2.360426 -15.143132 -8.116713 -26.919623 -12.599025 -7.075006 0.083031 6.884665 -8.492148 -3.633311 -2.634881 -82.533417 8.944595 -11.245980 -12.992086 9.938827 -28.594787 9.599436 10.022766 -26.347533 10.936589 4.854632 0.291372 2.666089 -10.216206 -2.103095 7.088847 -3.008333 5.374937 -0.892005 2.807735 -0.226221 5.413810 -5.334692 -10.840142 1.416620 -46.086333 10.682121 24.314357 -22.442139 -6.344204 -30.506572 63.222956 -17.086738 
70.904037 42.300209 82.168694 -16.386186 6.856875 -9.491465 2.146394 -2.779945 -4.712300 1.474662 -0.943977 -0.872456 1.474662 -0.943978 -0.872455 1.104625 -0.710095 -0.652051 12.280979 -15.988679 -18.798171 16.036915 7.014225 -30.475194 10.423542 1.025240 -1.951710 58.395611 -3.780651 -13.971710 -8.246616 -26.095878 -12.260729 -8.118246 0.317589 7.526217 -8.578174 -3.506921 -2.281760 -83.055852 8.400753 -10.194057 -12.773483 11.348128 -28.007992 10.509011 9.887277 -26.351088 11.866420 3.515032 -1.365907 3.286410 -10.069378 -2.363279 5.820635 -1.471934 6.285650 -0.580429 2.425693 -0.984182 6.082646 -2.131535 -10.085737 3.970092 -48.972323 8.723572 25.048570 -23.784667 -7.596331 -33.849038 64.449890 -19.901679 
71.764694 43.844357 81.775917 -16.971039 6.829801 -8.666623 2.406342 -3.082129 -4.136439 1.643563 -0.905295 -0.863280 1.643563 -0.905296 -0.863280 1.231370 -0.681301 -0.645015 12.425463 -15.909030 -18.640235 16.346594 7.185396 -30.129675 10.567645 0.827960 -1.973155 56.884384 -5.137185 -12.618646 -8.490034 -25.379088 -11.961403 -9.157286 0.308443 8.217108 -8.629772 -3.772047 -1.890157 -83.682317 8.209130 -9.790971 -12.303914 12.380383 -26.628408 11.287489 10.008565 -26.616199 12.418575 2.423588 -1.105812 4.336768 -10.497190 -2.405332 4.620022 0.754985 5.334538 -0.212647 1.942500 -1.203586 6.305496 1.236678 -8.076080 7.268791 -50.626759 5.957532 26.308159 -24.081741 -9.518579 -34.496280 64.118353 -20.928374 
72.476837 45.395695 81.444489 -17.534323 6.461229 -7.882762 2.892169 -3.089595 -3.428817 1.744920 -0.906626 -0.813061 1.744919 -0.906626 -0.813059 1.307459 -0.682299 -0.607200 12.605711 -15.758237 -18.488359 16.711325 7.490184 -29.782722 10.593765 0.785660 -2.120513 55.564402 -6.027318 -10.984213 -8.814900 -25.287616 -11.729625 -10.608371 0.177740 8.995974 -8.604606 -3.915570 -1.743645 -84.200571 8.300082 -9.538100 -11.432656 13.121748 -24.335177 11.994002 10.752237 -27.143868 13.214299 1.785314 -0.448568 5.247249 -10.741879 -2.553761 3.270861 2.365810 3.934890 0.142701 1.775028 -1.094512 6.304804 5.055566 -6.501006 9.375253 -51.536011 3.208525 27.161431 -24.043719 -10.482653 -32.321247 62.564458 -19.492747 
73.230064 46.943264 81.173531 -18.355044 6.157127 -7.016203 3.793159 -3.172693 -2.776419 1.799055 -0.928318 -0.744576 1.799056 -0.928317 -0.744578 1.348135 -0.698437 -0.555692 12.772955 -15.567637 -18.322175 17.053577 7.865096 -29.413533 10.464795 0.515695 -2.250639 54.419273 -5.921303 -8.914251 -9.181780 -26.218593 -11.512346 -12.437096 -0.031434 9.879715 -8.511714 -3.866841 -1.704094 -84.647641 8.105994 -9.191253 -10.105874 14.060760 -21.451109 12.776593 11.702486 -27.669899 14.346993 1.032720 -0.211200 5.852035 -10.947069 -3.022067 2.072549 3.585604 3.090731 0.443711 1.905066 -0.862375 6.518898 8.764208 -6.378528 9.345354 -52.292301 1.584007 27.066407 -23.522845 -9.410771 -29.457315 59.427516 -16.930067 
73.961365 48.587288 80.936165 -19.067221 6.099993 -6.100519 4.671748 -3.459453 -2.149713 1.832227 -0.953089 -0.671034 1.832227 -0.953089 -0.671033 1.373095 -0.716838 -0.500412 12.897710 -15.373900 -18.118332 17.332467 8.239869 -28.989020 10.140853 0.172748 -2.482979 53.575147 -5.272005 -6.552658 -9.566052 -27.761121 -11.230875 -14.357138 -0.404443 10.820240 -8.445660 -3.661783 -1.625868 -85.005898 7.309248 -8.581044 -8.555883 15.649715 -18.509656 13.758031 12.016457 -27.732228 15.543193 -0.089294 -0.415413 6.040211 -10.874929 -3.490344 1.141547 4.697892 2.671934 0.628257 1.957993 -0.706471 6.638014 12.234249 -7.469037 7.805281 -52.686850 1.762310 26.245162 -22.833278 -7.671080 -26.791164 55.302228 -14.143610 
74.620079 50.184254 80.700882 -19.409343 5.955504 -5.349417 5.220439 -3.585591 -1.375778 1.860276 -0.964646 -0.599178 1.860273 -0.964645 -0.599179 1.394230 -0.725316 -0.446442 12.947821 -15.244987 -17.843803 17.508854 8.486896 -28.459255 9.857355 -0.041406 -2.592395 52.897035 -4.544251 -4.252944 -9.875578 -29.226000 -10.880166 -16.073493 -0.814108 11.701274 -8.526883 -3.416641 -1.506995 -85.195053 6.430304 -7.640523 -7.020193 17.684931 -15.748220 14.830077 11.289685 -27.179232 16.336464 -1.164084 -1.238643 6.067898 -10.735830 -2.934524 0.335143 5.867978 2.123168 0.729235 1.814013 -0.586653 6.562269 15.781866 -9.087901 4.863910 -52.349845 4.197297 25.350081 -22.052794 -6.125040 -24.481804 50.456858 -11.681075 
75.137383 51.752064 80.472267 -19.344267 5.732430 -4.581458 5.378686 -3.533271 -0.691972 1.875220 -0.971709 -0.510451 1.875220 -0.971709 -0.510451 1.405572 -0.730356 -0.379851 12.924433 -15.200075 -17.494773 17.587631 8.571403 -27.817195 9.727096 -0.177856 -2.485391 52.367795 -3.932492 -2.003822 -10.091614 -30.111405 -10.508700 -17.368439 -0.992185 12.353458 -8.685419 -3.144551 -1.386434 -85.287507 6.114606 -6.508823 -5.312087 19.314180 -12.939765 15.785991 10.086831 -26.163125 16.634816 -2.168642 -2.241758 6.135380 -10.471407 -2.115425 -0.358232 7.117003 1.623296 0.743697 1.461288 -0.522839 6.211527 19.158769 -10.531583 1.884046 -51.004957 7.574953 24.498953 -20.713268 -5.442750 -21.833355 44.895715 -9.230487 
75.555466 53.366367 80.276672 -19.105661 5.660205 -3.957725 5.387780 -3.609442 -0.061544 1.852714 -0.995530 -0.387977 1.852714 -0.995530 -0.387977 1.388867 -0.747831 -0.287960 12.825445 -15.206260 -17.053543 17.566521 8.553727 -27.031498 9.701106 -0.343946 -2.273439 52.026377 -3.527370 0.484153 -10.180309 -30.280377 -10.165249 -18.249296 -0.858691 12.760263 -8.847312 -2.792034 -1.287659 -85.209212 6.628675 -5.328374 -3.302711 19.958562 -9.812895 16.440315 9.131642 -25.026262 16.685635 -3.355892 -2.985782 6.171709 -10.218348 -1.689406 -0.747910 8.322308 1.460251 0.639880 1.174537 -0.531119 5.876643 21.951540 -11.344524 -0.453331 -48.829118 10.815546 23.482879 -19.074669 -5.336650 -18.942606 39.011548 -6.970043 
75.855835 54.963264 80.102783 -18.596478 5.480072 -3.540210 5.185865 -3.588908 0.573382 1.785824 -1.044551 -0.226943 1.785823 -1.044550 -0.226943 1.338943 -0.784084 -0.167152 12.640956 -15.232731 -16.519858 17.423165 8.489454 -26.105866 9.767516 -0.503460 -2.120723 51.809468 -3.357844 3.309013 -10.121888 -29.885844 -9.828551 -18.883226 -0.516477 13.068606 -8.932887 -2.356175 -1.255631 -84.942794 7.763730 -4.046033 -1.164133 19.837031 -6.502676 16.808891 8.597551 -24.148614 16.472338 -4.299567 -3.290385 6.072687 -10.238148 -1.563885 -0.847375 9.603325 1.373126 0.472249 0.910716 -0.510685 5.477643 24.171817 -11.171171 -1.884634 -45.743983 12.840031 22.209825 -17.375267 -4.937046 -15.964695 32.781069 -4.996954 
76.082878 56.542400 79.956314 -17.921913 5.260730 -3.312409 4.909470 -3.493425 1.133196 1.701818 -1.088548 -0.062220 1.701816 -1.088548 -0.062220 1.276212 -0.816591 -0.043633 12.304097 -15.326343 -15.880805 17.042394 8.286621 -25.041912 9.852731 -0.708596 -2.030317 51.776553 -3.395393 6.575201 -9.975716 -29.281441 -9.581462 -19.422104 -0.082572 13.315258 -8.932183 -2.050074 -1.167867 -84.604406 8.969621 -2.699292 0.994997 19.684940 -3.146969 16.950663 8.243050 -23.665977 16.073003 -5.083738 -3.345180 5.881013 -10.523200 -1.489740 -0.736033 10.827539 1.205337 0.264151 0.790887 -0.412796 5.116861 25.701983 -9.949917 -2.603477 -41.734655 13.143742 20.728931 -16.302632 -3.923027 -12.824530 26.760162 -3.391385 
